<?xml version="1.0" encoding="utf-8"?>
<!-- Generator: Adobe Illustrator 17.0.2, SVG Export Plug-In . SVG Version: 6.00 Build 0)  -->
<!DOCTYPE svg PUBLIC "-//W3C//DTD SVG 1.1//EN" "http://www.w3.org/Graphics/SVG/1.1/DTD/svg11.dtd">
<svg version="1.1" id="Layer_1" xmlns="http://www.w3.org/2000/svg" xmlns:xlink="http://www.w3.org/1999/xlink" x="0px" y="0px"
	 width="81.897px" height="81.897px" viewBox="0 0 81.897 81.897" enable-background="new 0 0 81.897 81.897" xml:space="preserve">
<g>
	<g>
		<path fill="#010101" d="M40.948,13.451c-15.167,0-27.506,12.335-27.506,27.498s12.339,27.497,27.506,27.497
			s27.506-12.335,27.506-27.497S56.115,13.451,40.948,13.451z M40.948,65.29c-13.426,0-24.349-10.919-24.349-24.342
			c0-13.422,10.923-24.342,24.349-24.342s24.349,10.92,24.349,24.342C65.297,54.371,54.374,65.29,40.948,65.29z M59.062,43.232
			c1.785,0,3.238-1.452,3.238-3.237c0-11.783-9.588-21.369-21.373-21.369c-1.786,0-3.238,1.452-3.238,3.237
			c0,1.784,1.452,3.236,3.238,3.236c8.215,0,14.899,6.683,14.899,14.896C55.825,41.78,57.277,43.232,59.062,43.232z M40.926,22.995
			c-0.625,0-1.133-0.507-1.133-1.131c0-0.625,0.509-1.133,1.133-1.133c10.625,0,19.269,8.642,19.269,19.265
			c0,0.624-0.508,1.133-1.133,1.133c-0.624,0-1.132-0.508-1.132-1.133C57.93,30.622,50.302,22.995,40.926,22.995z M58.87,44.384
			c-1.738,0-3.153,1.415-3.153,3.154c0,1.739,1.415,3.153,3.153,3.153c1.74,0,3.155-1.415,3.155-3.154
			C62.025,45.799,60.61,44.384,58.87,44.384z M58.87,48.587c-0.578,0-1.048-0.47-1.048-1.049s0.47-1.051,1.048-1.051
			c0.579,0,1.05,0.471,1.05,1.05S59.449,48.587,58.87,48.587z"/>
	</g>
</g>
</svg>
