<?xml version="1.0" encoding="utf-8"?>
<!-- Generator: Adobe Illustrator 17.0.2, SVG Export Plug-In . SVG Version: 6.00 Build 0)  -->
<!DOCTYPE svg PUBLIC "-//W3C//DTD SVG 1.1//EN" "http://www.w3.org/Graphics/SVG/1.1/DTD/svg11.dtd">
<svg version="1.1" id="Layer_1" xmlns="http://www.w3.org/2000/svg" xmlns:xlink="http://www.w3.org/1999/xlink" x="0px" y="0px"
	 width="81.897px" height="81.897px" viewBox="0 0 81.897 81.897" enable-background="new 0 0 81.897 81.897" xml:space="preserve">
<g>
	<g>
		<path fill="#010101" d="M63.032,24.301H18.865c-2.373,0-4.305,1.883-4.305,4.199v24.897c0,2.316,1.932,4.2,4.305,4.2h44.167
			c2.373,0,4.305-1.884,4.305-4.2V28.499C67.338,26.184,65.406,24.301,63.032,24.301z M64.754,53.396c0,0.926-0.772,1.68-1.722,1.68
			H41.809V44.682h-1.722v10.394H18.865c-0.95,0-1.722-0.754-1.722-1.68V28.499c0-0.926,0.772-1.679,1.722-1.679h44.167
			c0.95,0,1.722,0.754,1.722,1.679V53.396z M40.952,40.454L19.474,27.255l-0.918,1.422l22.389,13.758L63.698,28.68l-0.907-1.428
			L40.952,40.454z"/>
	</g>
</g>
</svg>
