<?xml version="1.0" encoding="utf-8"?>
<!-- Generator: Adobe Illustrator 17.0.2, SVG Export Plug-In . SVG Version: 6.00 Build 0)  -->
<!DOCTYPE svg PUBLIC "-//W3C//DTD SVG 1.1//EN" "http://www.w3.org/Graphics/SVG/1.1/DTD/svg11.dtd">
<svg version="1.1" id="Layer_1" xmlns="http://www.w3.org/2000/svg" xmlns:xlink="http://www.w3.org/1999/xlink" x="0px" y="0px"
	 width="81.897px" height="81.897px" viewBox="0 0 81.897 81.897" enable-background="new 0 0 81.897 81.897" xml:space="preserve">
<path fill="#0A0909" d="M65.048,30.787l-4.498-6.011c-0.177-0.236-0.386-0.44-0.603-0.636v-7.184c0-1.661-1.343-3.007-3-3.007h-32
	c-1.657,0-3,1.346-3,3.007v7.187c-0.215,0.193-0.423,0.396-0.599,0.631l-4.498,6.012c-0.582,0.775-0.902,1.737-0.902,2.707v1.503
	c0,2.487,2.018,4.51,4.5,4.51h-0.001v25.435c0,1.661,1.343,3.007,3,3.007h35c1.657,0,3-1.346,3-3.007V39.507h0.001
	c2.481,0,4.5-2.023,4.5-4.51v-1.503C65.948,32.523,65.628,31.561,65.048,30.787z M56.947,16.956v6.013H24.948h-0.001v-6.013H56.947z
	 M31.238,36.5h-6.284l6-10.524h3.284L31.238,36.5z M35.799,25.976h4.398V36.5h-7.398L35.799,25.976z M41.697,25.976h4.398l3,10.524
	h-7.398V25.976z M47.656,25.976h3.284l6,10.524h-6.284L47.656,25.976z M18.948,34.997v-1.503c0-0.326,0.105-0.642,0.3-0.902
	l4.5-6.014c0.283-0.379,0.727-0.602,1.2-0.602h4.278L23.227,36.5h-2.779C19.62,36.5,18.948,35.828,18.948,34.997z M47.947,64.942
	h-13.25V47.908h13.25V64.942z M58.447,64.942h-9V47.908c0-0.831-0.672-1.503-1.5-1.503h-13.25c-0.828,0-1.5,0.672-1.5,1.503v17.034
	h-9.75V39.507h35V64.942z M62.948,34.997c0,0.831-0.672,1.503-1.5,1.503h-2.78l-6-10.524h4.279h0.001c0.472,0,0.917,0.223,1.2,0.602
	l4.5,6.014c0.195,0.26,0.3,0.576,0.3,0.902V34.997z"/>
</svg>
