<?xml version="1.0" encoding="utf-8"?>
<!-- Generator: Adobe Illustrator 17.0.2, SVG Export Plug-In . SVG Version: 6.00 Build 0)  -->
<!DOCTYPE svg PUBLIC "-//W3C//DTD SVG 1.1//EN" "http://www.w3.org/Graphics/SVG/1.1/DTD/svg11.dtd">
<svg version="1.1" id="Layer_1" xmlns="http://www.w3.org/2000/svg" xmlns:xlink="http://www.w3.org/1999/xlink" x="0px" y="0px"
	 width="81.897px" height="81.897px" viewBox="0 0 81.897 81.897" enable-background="new 0 0 81.897 81.897" xml:space="preserve">
<path fill="#010101" d="M69.83,35.903h-1.862c-0.334-2.157-2.252-3.813-4.756-4.114c-0.611-5.375-2.473-9.833-5.827-13.085
	c-6.552-6.345-15.809-6.162-16.35-6.149c-0.525-0.013-9.806-0.195-16.359,6.154c-3.354,3.252-5.216,7.707-5.827,13.08
	c-2.499,0.301-4.422,1.957-4.757,4.114h-2.027c-0.611,0-1.111,0.501-1.111,1.114v7.828c0,0.612,0.5,1.113,1.111,1.113h2.026
	c0.365,2.378,2.643,4.249,5.502,4.249c3.116,0,5.65-2.179,5.65-4.858v-8.831c0-2.237-1.796-4.04-4.191-4.606
	c0.573-4.788,2.222-8.732,5.155-11.589c5.494-5.336,13.448-5.54,14.636-5.54c0.182,0,0.161,0,0.187,0h0.043
	c0.113,0,8.869-0.205,14.781,5.536c2.933,2.857,4.582,6.805,5.155,11.594c-2.396,0.566-4.192,2.37-4.192,4.606v8.832
	c0,2.327,1.949,4.179,4.491,4.657c-0.19,2.532-1.466,9.869-8.817,13.121c-0.659-1.722-2.304-2.962-4.257-2.962h-4.56
	c-2.526,0-4.579,2.053-4.579,4.579c0,2.535,2.052,4.598,4.579,4.598h4.56c2.239,0,4.022-1.653,4.418-3.789
	c9.152-3.518,10.64-12.606,10.874-15.529c2.352-0.405,4.127-2,4.444-4.067h1.862c0.611,0,1.11-0.5,1.11-1.113v-7.829
	C70.941,36.403,70.442,35.903,69.83,35.903z M13.742,43.732h-0.565V38.13h0.564L13.742,43.732L13.742,43.732z M23.023,36.517v8.832
	c0,1.453-1.536,2.631-3.429,2.631c-1.887,0-3.423-1.178-3.423-2.631v-8.832c0-1.452,1.537-2.631,3.423-2.631
	C21.487,33.886,23.023,35.065,23.023,36.517z M48.234,67.115h-4.56c-1.298,0-2.357-1.061-2.357-2.37
	c0-1.296,1.059-2.353,2.357-2.353h4.56c1.302,0,2.361,1.057,2.361,2.353C50.594,66.054,49.535,67.115,48.234,67.115z M65.891,45.349
	c0,1.453-1.536,2.631-3.424,2.631c-1.892,0-3.428-1.178-3.428-2.631v-8.832c0-1.452,1.537-2.631,3.428-2.631
	c1.887,0,3.424,1.179,3.424,2.631V45.349z M68.72,43.732h-0.564V38.13h0.564V43.732z"/>
</svg>
