<?xml version="1.0" encoding="utf-8"?>
<!-- Generator: Adobe Illustrator 17.0.2, SVG Export Plug-In . SVG Version: 6.00 Build 0)  -->
<!DOCTYPE svg PUBLIC "-//W3C//DTD SVG 1.1//EN" "http://www.w3.org/Graphics/SVG/1.1/DTD/svg11.dtd">
<svg version="1.1" id="Layer_1" xmlns="http://www.w3.org/2000/svg" xmlns:xlink="http://www.w3.org/1999/xlink" x="0px" y="0px"
	 width="81.897px" height="81.897px" viewBox="0 0 81.897 81.897" enable-background="new 0 0 81.897 81.897" xml:space="preserve">
<g>
	<g>
		<path fill="#010101" d="M60.365,20.683H19.788c-0.425-1.177-0.85-2.353-1.275-3.529c-0.25-0.694-0.819-1.202-1.599-1.202H6.603
			c-2.137,0-2.137,3.275,0,3.275h9.148c2.923,8.094,5.849,16.189,8.771,24.283c0.981,2.306,1.964,4.612,2.944,6.917
			c0.294,0.685,0.789,1.205,1.599,1.205h24.303c2.134,0,2.134-3.279,0-3.279H30.151c-0.516-1.217-1.033-2.428-1.55-3.642h26.976
			c0.711,0,1.435-0.495,1.596-1.201c1.596-6.917,3.192-13.837,4.788-20.754C62.203,21.726,61.479,20.683,60.365,20.683z
			 M54.254,41.434H27.285c-2.105-5.823-4.209-11.648-6.312-17.473h37.315C56.945,29.786,55.602,35.612,54.254,41.434z
			 M29.894,52.746c-3.761-0.202-6.483,3.168-6.668,6.592c-0.204,3.725,3.204,6.416,6.668,6.599c3.584,0.19,6.213-2.857,6.622-6.11
			c0.037-0.147,0.056-0.305,0.049-0.489c0.006-0.178-0.013-0.331-0.049-0.477C36.119,55.388,33.501,52.942,29.894,52.746z
			 M26.539,59.338c-0.232-4.281,6.479-4.256,6.711,0C33.018,63.619,26.773,63.619,26.539,59.338z M52.582,52.746
			c-3.761-0.202-6.483,3.168-6.668,6.592c-0.204,3.725,3.204,6.416,6.668,6.599c3.582,0.19,6.217-2.857,6.619-6.11
			c0.037-0.147,0.062-0.305,0.049-0.489c0.012-0.178-0.013-0.331-0.044-0.477C58.804,55.388,56.188,52.942,52.582,52.746z
			 M49.223,59.338c-0.229-4.281,6.483-4.256,6.711,0C55.705,63.619,49.458,63.619,49.223,59.338z"/>
	</g>
</g>
</svg>
