<?xml version="1.0" encoding="utf-8"?>
<!-- Generator: Adobe Illustrator 18.1.1, SVG Export Plug-In . SVG Version: 6.00 Build 0)  -->
<!DOCTYPE svg PUBLIC "-//W3C//DTD SVG 1.1//EN" "http://www.w3.org/Graphics/SVG/1.1/DTD/svg11.dtd">
<svg version="1.1" id="Layer_1" xmlns="http://www.w3.org/2000/svg" xmlns:xlink="http://www.w3.org/1999/xlink" x="0px" y="0px"
	 viewBox="13.6 43.6 595.3 732.7" enable-background="new 13.6 43.6 595.3 732.7" xml:space="preserve">
<path d="M586,158.1H425.8V96.3c0-29.8-22.9-52.7-52.7-52.7H249.5c-29.8,0-52.7,22.9-52.7,52.7v61.8H36.5c-13.7,0-22.9,9.2-22.9,22.9
	c0,13.7,9.2,22.9,22.9,22.9h32.1l52.7,528.9c2.3,25.2,22.9,43.5,48.1,43.5h283.9c25.2,0,45.8-18.3,48.1-43.5L554,203.9H586
	c13.7,0,22.9-9.2,22.9-22.9C608.9,167.3,597.5,158.1,586,158.1z M242.6,96.3c0-4.6,2.3-6.9,6.9-6.9h123.6c4.6,0,6.9,2.3,6.9,6.9
	v61.8H242.6L242.6,96.3L242.6,96.3z M455.5,728.2c0,2.3-2.3,2.3-2.3,2.3h-77.8l27.5-286.2l-27.5-2.3l-27.5,288.5h-68.7L251.8,442
	l-27.5,2.3l27.5,286.2h-82.4l-2.3-2.3l-52.7-524.3h393.8L455.5,728.2z"/>
</svg>
